<?xml version="1.0" encoding="UTF-8" standalone="no"?>
<svg
   xmlns:dc="http://purl.org/dc/elements/1.1/"
   xmlns:cc="http://creativecommons.org/ns#"
   xmlns:rdf="http://www.w3.org/1999/02/22-rdf-syntax-ns#"
   xmlns:svg="http://www.w3.org/2000/svg"
   xmlns="http://www.w3.org/2000/svg"
   xmlns:sodipodi="http://sodipodi.sourceforge.net/DTD/sodipodi-0.dtd"
   xmlns:inkscape="http://www.inkscape.org/namespaces/inkscape"
   data-name="Layer 1"
   viewBox="0 0 48 48"
   x="0px"
   y="0px"
   version="1.1"
   id="svg922"
   sodipodi:docname="ap-up.svg"
   inkscape:version="1.0 (4035a4fb49, 2020-05-01)"
   width="48"
   height="48">
  <metadata
     id="metadata928">
    <rdf:RDF>
      <cc:Work
         rdf:about="">
        <dc:format>image/svg+xml</dc:format>
        <dc:type
           rdf:resource="http://purl.org/dc/dcmitype/StillImage" />
        <dc:title>wifi14</dc:title>
      </cc:Work>
    </rdf:RDF>
  </metadata>
  <defs
     id="defs926" />
  <sodipodi:namedview
     inkscape:document-rotation="0"
     pagecolor="#ffffff"
     bordercolor="#666666"
     borderopacity="1"
     objecttolerance="10"
     gridtolerance="10"
     guidetolerance="10"
     inkscape:pageopacity="0"
     inkscape:pageshadow="2"
     inkscape:window-width="1596"
     inkscape:window-height="861"
     id="namedview924"
     showgrid="false"
     inkscape:zoom="1.021875"
     inkscape:cx="229.9675"
     inkscape:cy="291.72857"
     inkscape:window-x="0"
     inkscape:window-y="18"
     inkscape:window-maximized="1"
     inkscape:current-layer="svg922" />
  <title
     id="title904">wifi14</title>
  <path
     d="m 23.997391,12.647996 a 4.9243345,4.973055 0 1 0 4.924335,4.973055 4.9295521,4.9783242 0 0 0 -4.924335,-4.973055 z"
     id="path906"
     style="stroke-width:0.104866;fill:#02ff02;fill-opacity:1" />
  <path
     d="m 17.049686,8.9722142 a 1.5819646,1.5976163 0 0 0 -0.481059,-1.1518434 1.6330967,1.6492543 0 0 0 -2.285292,0 13.735752,13.871652 0 0 0 0,19.6076842 1.6268357,1.6429313 0 0 0 2.287379,0 1.6330967,1.6492543 0 0 0 0,-2.31001 10.512343,10.61635 0 0 1 0,-14.993988 1.5830081,1.5986702 0 0 0 0.478972,-1.1518428 z"
     id="path908"
     style="stroke-width:0.104866;fill:#02ff02;fill-opacity:1" />
  <path
     d="m 31.428242,7.805617 a 1.6205746,1.6366083 0 0 0 0,2.31844 10.502951,10.606866 0 0 1 0,15.004526 1.6320532,1.6482005 0 0 0 0,2.304741 v 0 a 1.6268357,1.6429313 0 0 0 2.287379,0 13.728448,13.864275 0 0 0 0,-19.6192763 1.6310097,1.6471466 0 0 0 -2.287379,-0.00843 z"
     id="path910"
     style="stroke-width:0.104866;fill:#02ff02;fill-opacity:1" />
  <path
     d="m 38.690044,0.47196791 a 1.6330967,1.6492543 0 0 0 0,2.31000989 20.790939,20.996641 0 0 1 0,29.6813082 1.6310097,1.6471466 0 0 0 0,2.304741 v 0 a 1.6268357,1.6429313 0 0 0 2.287379,0 c 9.363436,-9.456076 9.363436,-24.8410368 0,-34.29605909 a 1.6330967,1.6492543 0 0 0 -2.287379,0 z"
     id="path912"
     style="stroke-width:0.104866;fill:#02ff02;fill-opacity:1" />
  <path
     d="m 9.3099558,0.47723709 v 0 a 1.6330967,1.6492543 0 0 0 -2.287379,0 c -9.3634357,9.45607611 -9.3634357,24.84103691 0,34.29711291 a 1.6268357,1.6429313 0 0 0 2.287379,0 1.6330967,1.6492543 0 0 0 0,-2.31001 20.790939,20.996641 0 0 1 0,-29.6760391 1.6310097,1.6471466 0 0 0 0,-2.31106381 z"
     id="path914"
     style="stroke-width:0.104866;fill:#02ff02;fill-opacity:1" />
  <path
     d="m 23.997391,24.736556 c -0.890116,0 -1.565268,0.731363 -1.565268,1.629231 v 20.004981 c 0,0.898923 0.675152,1.629232 1.565268,1.629232 0.890116,0 1.565269,-0.731363 1.565269,-1.629232 V 26.370003 c 0,-0.895761 -0.675153,-1.633447 -1.565269,-1.633447 z"
     id="path916"
     style="stroke-width:0.104866;fill:#02ff02;fill-opacity:1" />
</svg>
