<?xml version="1.0" encoding="UTF-8" standalone="no"?>
<svg
   xmlns:dc="http://purl.org/dc/elements/1.1/"
   xmlns:cc="http://creativecommons.org/ns#"
   xmlns:rdf="http://www.w3.org/1999/02/22-rdf-syntax-ns#"
   xmlns:svg="http://www.w3.org/2000/svg"
   xmlns="http://www.w3.org/2000/svg"
   xmlns:sodipodi="http://sodipodi.sourceforge.net/DTD/sodipodi-0.dtd"
   xmlns:inkscape="http://www.inkscape.org/namespaces/inkscape"
   inkscape:version="1.0 (4035a4fb49, 2020-05-01)"
   height="25"
   width="30"
   sodipodi:docname="signal-0.svg"
   id="svg936"
   version="1.1"
   y="0px"
   x="0px"
   viewBox="0 0 30 25"
   data-name="Layer 1">
  <metadata
     id="metadata940">
    <rdf:RDF>
      <cc:Work
         rdf:about="">
        <dc:format>image/svg+xml</dc:format>
        <dc:type
           rdf:resource="http://purl.org/dc/dcmitype/StillImage" />
        <dc:title>wifi15</dc:title>
      </cc:Work>
    </rdf:RDF>
  </metadata>
  <sodipodi:namedview
     inkscape:current-layer="svg936"
     inkscape:window-maximized="1"
     inkscape:window-y="0"
     inkscape:window-x="0"
     inkscape:cy="239"
     inkscape:cx="230"
     inkscape:zoom="1.021875"
     showgrid="false"
     id="namedview938"
     inkscape:window-height="851"
     inkscape:window-width="1596"
     inkscape:pageshadow="2"
     inkscape:pageopacity="0"
     guidetolerance="10"
     gridtolerance="10"
     objecttolerance="10"
     borderopacity="1"
     bordercolor="#666666"
     pagecolor="#ffffff" />
  <defs
     id="defs912">
    <style
       id="style910">.cls-1{fill:none;}</style>
  </defs>
  <title
     id="title914">wifi15</title>
  <rect
     style="stroke-width:0.0682524"
     id="rect916"
     ry="2.3678572"
     rx="2.1619565"
     height="9.4285717"
     width="4.695652"
     y="14.857142"
     x="0.65217394"
     class="cls-1" />
  <rect
     style="stroke-width:0.0682524"
     id="rect918"
     ry="2.3678572"
     rx="2.1619565"
     height="12.714286"
     width="4.695652"
     y="11.571428"
     x="8.347826"
     class="cls-1" />
  <rect
     style="stroke-width:0.0682524"
     id="rect920"
     ry="2.3678572"
     rx="2.1619565"
     height="23.57143"
     width="4.695652"
     y="0.71428573"
     x="24.652174"
     class="cls-1" />
  <rect
     style="stroke-width:0.0682524"
     id="rect922"
     ry="2.3678572"
     rx="2.1619565"
     height="17.214285"
     width="4.695652"
     y="7.0714283"
     x="16.5"
     class="cls-1" />
  <path
     style="stroke-width:0.0682524"
     id="path924"
     d="m 13.695652,13.939286 a 2.8141304,3.0821428 0 0 0 -2.81413,-3.082143 h -0.371739 a 2.8141304,3.0821428 0 0 0 -2.8141308,3.082143 v 7.978572 A 2.8141304,3.0821428 0 0 0 10.509783,25 h 0.371739 a 2.8141304,3.0821428 0 0 0 2.81413,-3.082142 z m -0.652174,7.978572 a 2.1619565,2.3678571 0 0 1 -2.161956,2.367856 H 10.509783 A 2.1619565,2.3678571 0 0 1 8.3478261,21.917858 v -7.978572 a 2.1619565,2.3678571 0 0 1 2.1619569,-2.367858 h 0.371739 a 2.1619565,2.3678571 0 0 1 2.161956,2.367858 z" />
  <path
     style="stroke-width:0.0682524"
     id="path926"
     d="M 21.847826,9.4392857 A 2.8141304,3.0821428 0 0 0 19.033696,6.3571428 H 18.661957 A 2.8141304,3.0821428 0 0 0 15.847826,9.4392857 V 21.917858 A 2.8141304,3.0821428 0 0 0 18.661957,25 h 0.371739 a 2.8141304,3.0821428 0 0 0 2.81413,-3.082142 z M 21.195652,21.917858 a 2.1619565,2.3678571 0 0 1 -2.161956,2.367856 H 18.661957 A 2.1619565,2.3678571 0 0 1 16.5,21.917858 V 9.4392857 a 2.1619565,2.3678571 0 0 1 2.161957,-2.3678572 h 0.371739 a 2.1619565,2.3678571 0 0 1 2.161956,2.3678572 z" />
  <path
     style="stroke-width:0.0682524"
     id="path928"
     d="M 30,3.0821428 A 2.8141304,3.0821428 0 0 0 27.18587,0 H 26.81413 A 2.8141304,3.0821428 0 0 0 24,3.0821428 V 21.917858 A 2.8141304,3.0821428 0 0 0 26.81413,25 h 0.37174 A 2.8141304,3.0821428 0 0 0 30,21.917858 Z M 29.347826,21.917858 A 2.1619565,2.3678571 0 0 1 27.18587,24.285714 H 26.81413 A 2.1619565,2.3678571 0 0 1 24.652174,21.917858 V 3.0821428 A 2.1619565,2.3678571 0 0 1 26.81413,0.71428571 h 0.37174 a 2.1619565,2.3678571 0 0 1 2.161956,2.36785709 z" />
  <path
     style="stroke-width:0.0682524"
     id="path930"
     d="M 6,17.225 A 2.8141304,3.0821428 0 0 0 3.1858696,14.142857 H 2.8141304 A 2.8141304,3.0821428 0 0 0 0,17.225 v 4.692858 A 2.8141304,3.0821428 0 0 0 2.8141304,25 H 3.1858696 A 2.8141304,3.0821428 0 0 0 6,21.917858 Z M 5.3478261,21.917858 A 2.1619565,2.3678571 0 0 1 3.1858696,24.285714 H 2.8141304 A 2.1619565,2.3678571 0 0 1 0.65217391,21.917858 V 17.225 A 2.1619565,2.3678571 0 0 1 2.8141304,14.857142 H 3.1858696 A 2.1619565,2.3678571 0 0 1 5.3478261,17.225 Z" />
</svg>
