<?xml version="1.0" encoding="UTF-8" standalone="no"?>
<svg
   xmlns:dc="http://purl.org/dc/elements/1.1/"
   xmlns:cc="http://creativecommons.org/ns#"
   xmlns:rdf="http://www.w3.org/1999/02/22-rdf-syntax-ns#"
   xmlns:svg="http://www.w3.org/2000/svg"
   xmlns="http://www.w3.org/2000/svg"
   xmlns:sodipodi="http://sodipodi.sourceforge.net/DTD/sodipodi-0.dtd"
   xmlns:inkscape="http://www.inkscape.org/namespaces/inkscape"
   height="25"
   width="30"
   data-name="Layer 1"
   viewBox="0 0 30 25"
   x="0px"
   y="0px"
   version="1.1"
   id="svg1224"
   sodipodi:docname="signal-3.svg"
   inkscape:version="1.0 (4035a4fb49, 2020-05-01)">
  <metadata
     id="metadata1228">
    <rdf:RDF>
      <cc:Work
         rdf:about="">
        <dc:format>image/svg+xml</dc:format>
        <dc:type
           rdf:resource="http://purl.org/dc/dcmitype/StillImage" />
        <dc:title>wifi15</dc:title>
      </cc:Work>
    </rdf:RDF>
  </metadata>
  <sodipodi:namedview
     inkscape:document-rotation="0"
     pagecolor="#ffffff"
     bordercolor="#666666"
     borderopacity="1"
     objecttolerance="10"
     gridtolerance="10"
     guidetolerance="10"
     inkscape:pageopacity="0"
     inkscape:pageshadow="2"
     inkscape:window-width="1596"
     inkscape:window-height="851"
     id="namedview1226"
     showgrid="false"
     inkscape:zoom="1.021875"
     inkscape:cx="230"
     inkscape:cy="239"
     inkscape:window-x="0"
     inkscape:window-y="0"
     inkscape:window-maximized="1"
     inkscape:current-layer="svg1224" />
  <defs
     id="defs1206">
    <style
       id="style1204">.cls-1{fill:none;}</style>
  </defs>
  <title
     id="title1208">wifi15</title>
  <rect
     class="cls-1"
     x="24.652172"
     y="0.7142868"
     width="4.695652"
     height="23.571426"
     rx="2.1619565"
     ry="2.3678567"
     id="rect1210"
     style="stroke-width:0.0682524" />
  <rect
     x="7.695652"
     y="10.85714"
     width="6"
     height="14.142855"
     rx="2.8141305"
     ry="3.0821426"
     id="rect1212"
     style="stroke-width:0.0682524" />
  <rect
     x="15.847828"
     y="6.3571396"
     width="6"
     height="18.642855"
     rx="2.8141305"
     ry="3.0821426"
     id="rect1214"
     style="stroke-width:0.0682524" />
  <path
     d="M 30,3.082142 A 2.8141304,3.0821424 0 0 0 27.18587,0 H 26.81413 A 2.8141304,3.0821424 0 0 0 24,3.082142 V 21.91786 A 2.8141304,3.0821424 0 0 0 26.81413,25 h 0.37174 A 2.8141304,3.0821424 0 0 0 30,21.91786 Z M 29.347826,21.91786 A 2.1619565,2.3678568 0 0 1 27.18587,24.28571 H 26.81413 A 2.1619565,2.3678568 0 0 1 24.652174,21.91786 V 3.082142 A 2.1619565,2.3678568 0 0 1 26.81413,0.714286 h 0.37174 a 2.1619565,2.3678568 0 0 1 2.161956,2.367856 z"
     id="path1216"
     style="stroke-width:0.0682524" />
  <rect
     x="0"
     y="14.142853"
     width="6"
     height="10.857141"
     rx="2.8141305"
     ry="3.0821426"
     id="rect1218"
     style="stroke-width:0.0682524" />
</svg>
