<?xml version="1.0" encoding="UTF-8" standalone="no"?>
<svg
   xmlns:dc="http://purl.org/dc/elements/1.1/"
   xmlns:cc="http://creativecommons.org/ns#"
   xmlns:rdf="http://www.w3.org/1999/02/22-rdf-syntax-ns#"
   xmlns:svg="http://www.w3.org/2000/svg"
   xmlns="http://www.w3.org/2000/svg"
   xmlns:sodipodi="http://sodipodi.sourceforge.net/DTD/sodipodi-0.dtd"
   xmlns:inkscape="http://www.inkscape.org/namespaces/inkscape"
   inkscape:version="1.0 (4035a4fb49, 2020-05-01)"
   height="25"
   width="30"
   sodipodi:docname="signal-1.svg"
   id="svg964"
   version="1.1"
   y="0px"
   x="0px"
   viewBox="0 0 30 25"
   data-name="Layer 1">
  <metadata
     id="metadata968">
    <rdf:RDF>
      <cc:Work
         rdf:about="">
        <dc:format>image/svg+xml</dc:format>
        <dc:type
           rdf:resource="http://purl.org/dc/dcmitype/StillImage" />
        <dc:title>wifi15</dc:title>
      </cc:Work>
    </rdf:RDF>
  </metadata>
  <sodipodi:namedview
     inkscape:current-layer="svg964"
     inkscape:window-maximized="1"
     inkscape:window-y="0"
     inkscape:window-x="0"
     inkscape:cy="239"
     inkscape:cx="230"
     inkscape:zoom="1.021875"
     showgrid="false"
     id="namedview966"
     inkscape:window-height="851"
     inkscape:window-width="1596"
     inkscape:pageshadow="2"
     inkscape:pageopacity="0"
     guidetolerance="10"
     gridtolerance="10"
     objecttolerance="10"
     borderopacity="1"
     bordercolor="#666666"
     pagecolor="#ffffff" />
  <defs
     id="defs942">
    <style
       id="style940">.cls-1{fill:none;}</style>
  </defs>
  <title
     id="title944">wifi15</title>
  <rect
     style="stroke-width:0.0682524"
     id="rect946"
     ry="2.3678567"
     rx="2.1619565"
     height="17.214283"
     width="4.695652"
     y="7.0714264"
     x="16.5"
     class="cls-1" />
  <rect
     style="stroke-width:0.0682524"
     id="rect948"
     ry="2.3678567"
     rx="2.1619565"
     height="23.571426"
     width="4.695652"
     y="0.7142868"
     x="24.652172"
     class="cls-1" />
  <rect
     style="stroke-width:0.0682524"
     id="rect950"
     ry="2.3678567"
     rx="2.1619565"
     height="12.714284"
     width="4.695652"
     y="11.571426"
     x="8.3478279"
     class="cls-1" />
  <path
     style="stroke-width:0.0682524"
     id="path952"
     d="m 13.695652,13.939284 a 2.8141304,3.0821424 0 0 0 -2.81413,-3.082143 H 10.509783 A 2.8141304,3.0821424 0 0 0 7.695652,13.939284 V 21.91786 A 2.8141304,3.0821424 0 0 0 10.509783,25 h 0.371739 a 2.8141304,3.0821424 0 0 0 2.81413,-3.08214 z m -0.652174,7.978576 a 2.1619565,2.3678568 0 0 1 -2.161956,2.36785 H 10.509783 A 2.1619565,2.3678568 0 0 1 8.347826,21.91786 v -7.978576 a 2.1619565,2.3678568 0 0 1 2.161957,-2.367857 h 0.371739 a 2.1619565,2.3678568 0 0 1 2.161956,2.367857 z" />
  <path
     style="stroke-width:0.0682524"
     id="path954"
     d="M 21.847826,9.439284 A 2.8141304,3.0821424 0 0 0 19.033696,6.357142 H 18.661957 A 2.8141304,3.0821424 0 0 0 15.847826,9.439284 V 21.91786 A 2.8141304,3.0821424 0 0 0 18.661957,25 h 0.371739 a 2.8141304,3.0821424 0 0 0 2.81413,-3.08214 z M 21.195652,21.91786 a 2.1619565,2.3678568 0 0 1 -2.161956,2.36785 H 18.661957 A 2.1619565,2.3678568 0 0 1 16.5,21.91786 V 9.439284 a 2.1619565,2.3678568 0 0 1 2.161957,-2.367856 h 0.371739 a 2.1619565,2.3678568 0 0 1 2.161956,2.367856 z" />
  <path
     style="stroke-width:0.0682524"
     id="path956"
     d="M 30,3.082142 A 2.8141304,3.0821424 0 0 0 27.18587,0 H 26.81413 A 2.8141304,3.0821424 0 0 0 24,3.082142 V 21.91786 A 2.8141304,3.0821424 0 0 0 26.81413,25 h 0.37174 A 2.8141304,3.0821424 0 0 0 30,21.91786 Z M 29.347826,21.91786 A 2.1619565,2.3678568 0 0 1 27.18587,24.28571 H 26.81413 A 2.1619565,2.3678568 0 0 1 24.652174,21.91786 V 3.082142 A 2.1619565,2.3678568 0 0 1 26.81413,0.714286 h 0.37174 a 2.1619565,2.3678568 0 0 1 2.161956,2.367856 z" />
  <rect
     style="stroke-width:0.0682524"
     id="rect958"
     ry="3.0821426"
     rx="2.8141305"
     height="10.857141"
     width="6"
     y="14.142853"
     x="0" />
</svg>
